# xmcd CD database file
# Copyright (C) 1996 Ti Kan
#
# Track frame offsets:
#  150
#  6257
#  23562
#  39005
#  41912
#  51420
#  54642
#  60250
#  74070
#  84035
#  87112
#  104337
#  108607
#  114700
#  127840
#  138320
#  143542
#  155717
#  162720
#  168995
#  184280
#  196265
#  199142
#  211145
#  214197
#
# Disc length: 2893 seconds
#
# Revision: 1
# Processed by: cddbd v1.4b41PL1 Copyright (c) Steve Scherf et al.
# Submitted via: CDWizzard Release:4.13
#
DISCID=620b4b19
DTITLE=HANK WILLIAMS - HEALTH and HAPPINESS SHOWS DISC 1
DYEAR=1900
DGENRE=
TTITLE0=HAPPY ROVIN' COWBOY
TTITLE1=WEDDING BELLS
TTITLE2=LOVESICK BLUES
TTITLE3=OLD JOE CLARK
TTITLE4=WHERE THE SOAL OF MAN NEVER DIES
TTITLE5=SALLY GOODIN'
TTITLE6=HAPPY ROVIN' COWBOY
TTITLE7=YOU'RE GONNA CHANGE
TTITLE8=THERE'S A BLUEBIRD ON YOUR WINDOW SILL
TTITLE9=FIRE ON THE MOUNTAIN
TTITLE10=A TRAMP ON THE STREET
TTITLE11=SALLY GOODIN'
TTITLE12=HAPPY ROVIN' COWBOY
TTITLE13=I'M A LONG GONE DADDY
TTITLE14=I'M TELLING YOU
TTITLE15=BILL CHEATHAM
TTITLE16=WHEN GOD COMES AND GRATHERS HIS JEWELS
TTITLE17=SALLY GOODIN'
TTITLE18=HAPPY ROVIN' COWBOY
TTITLE19=LOST HIGHWAY
TTITLE20=I WANT TO LIVE AND LOVE
TTITLE21=BILE THEM CABBAGE DOWN
TTITLE22=I'LL HAVE A NEW BODY I'LL HAVE A NEW LIFE
TTITLE23=FINGERS ON FIRE
TTITLE24=SALLY GOODIN'
EXTD=
EXTT0=
EXTT1=
EXTT2=
EXTT3=
EXTT4=
EXTT5=
EXTT6=
EXTT7=
EXTT8=
EXTT9=
EXTT10=
EXTT11=
EXTT12=
EXTT13=
EXTT14=
EXTT15=
EXTT16=
EXTT17=
EXTT18=
EXTT19=
EXTT20=
EXTT21=
EXTT22=
EXTT23=
EXTT24=
PLAYORDER=
